<svg xmlns="http://www.w3.org/2000/svg" viewBox="0 0 108 108">
    <g fill="none" fill-rule="evenodd">
        <path fill="#009A3D" d="M0 0h108v108H0z"/>
        <g fill="#FFF" fill-rule="nonzero">
            <path d="M57.137 82.8c-.157 0-.314-.01-.47-.029-1.497-.182-1.879-1.493-1.74-2.657a4.847 4.847 0 0 1 1.137-2.536c.686-.775 1.54-1.153 2.41-1.066.675.068 1.221.489 1.536 1.184.535 1.18.313 2.883-.528 3.958a2.883 2.883 0 0 1-2.345 1.146zM50.718 84.6h-.058l-14.858-1.137a.759.759 0 0 1-.654-1.019l3.02-8.15a.757.757 0 0 1 .75-.493l14.36.712a.759.759 0 0 1 .691.97l-2.527 8.567a.763.763 0 0 1-.724.55z"/>
            <path d="M83.822 30.16a2.43 2.43 0 0 0 .778-1.788c0-1.9-3.621-4.067-9.688-5.798-6.185-1.762-13.65-2.774-20.487-2.774-7.326 0-15.174 1.052-21.529 2.886-5.858 1.69-9.496 3.797-9.496 5.494a2.292 2.292 0 0 0 .729 1.695c1.586 1.542 5.212 1.537 5.697 1.53.362.708 4.982 9.68 8.634 12.443l-.155 5.478a84.83 84.83 0 0 0-6.85 11.01c-2.99 5.776-6.276 14.042-4.941 20.683 1.2 5.992 11.545 8.081 22.417 8.081 1.913 0 3.844-.065 5.742-.185 10.63-.671 19.399-2.94 19.55-5.059l.642-18.25a40.197 40.197 0 0 0 1.887-6.593c.665-3.42 1.074-8.237-.74-11.827-1.193-2.357-3.205-3.927-5.977-4.662 2.852-3.108 6.582-9.946 6.906-10.55.538.007 5.036-.005 6.88-1.814zm-56.765-2.227l.484-.156c9.742-3.049 17.933-4.52 25.777-4.625 8.793-.118 17.635 1.512 27.027 4.983l.428.155h-.456c-20.937-.36-27.077-.359-47.42-.357h-5.84zm45.575 19.72c1.368 2.091 1.759 5.465 1.13 9.76-.573 3.91-1.946 8.407-3.97 13.004-4.371 9.946-10.14 15.713-26.68 15.713-7.083 0-11.623-1.733-13.493-5.152-3.678-6.741 3.82-18.381 7.423-23.976.877-1.36 1.51-2.344 1.737-2.863l.125-.283.025.311c.067.825.115 1.685.166 2.594.274 4.861.587 10.372 3.83 13.106 1.69 1.425 3.998 2.057 7.006 1.614 9.079-1.335 13.274-6.59 14.84-10.911 1.769-4.881 2.04-10.221 2.18-13.09.095-1.876.134-2.418.377-2.428 2.392-.001 4.176.874 5.304 2.6zm-8.532-.924c.022 5.96-.403 12.086-3.126 15.868-1.257 1.983-3.23 3.704-5.76 5.024-2.162 1.13-4.295 1.717-6.17 1.717a7.825 7.825 0 0 1-1.646-.166c-3.76-.808-4.876-4.319-5.152-7.12-.054-.842-.109-1.605-.155-2.332-.28-3.96-.483-6.82-.358-14.927v-.076h.076c4.753 0 7.958.084 11.053.166 3.095.082 6.342.166 11.151.166h.078v.078c.006.555.008 1.093.01 1.604v-.002zm8.863-15.475c-.135.295-.268.59-.402.887-1.23 2.732-2.501 5.557-6.048 9.506l-.023.027h-.034c-5.466 0-8.759-.04-12.246-.083-3.71-.045-7.547-.091-14.322-.091h-.037l-.446-.564c-3.258-4.18-3.937-5.051-6.331-9.67l14.612-.597c1.208-.039 5.46-.059 6.669-.03l18.66.506-.052.109z"/>
        </g>
    </g>
</svg>
